<svg width="290" height="153" viewBox="0 0 290 153" fill="none" xmlns="http://www.w3.org/2000/svg">
<path d="M87.8789 144.181C69.9389 142.621 69.7439 142.816 69.7439 126.046V84.5109L95.6789 29.3259C102.699 14.3109 109.524 8.26593 120.444 7.29094V3.58594H80.2739V7.29094C94.7039 8.46093 96.2639 12.5559 88.8539 29.3259L67.0139 77.8809L41.2739 25.4259C33.4739 9.63093 32.8889 8.46093 49.0739 7.29094V3.58594H0.128906V7.29094C12.4139 8.65593 13.5839 9.63093 21.3839 25.4259L50.8289 85.2909V126.046C50.8289 142.816 50.4389 142.816 34.2539 144.181V147.886H87.8789V144.181ZM201.457 126.046C201.457 142.816 201.262 143.011 185.077 144.181V147.886H236.947V144.181C220.762 142.816 220.372 142.816 220.372 126.046V25.4259C220.372 8.65593 220.567 8.46093 236.752 7.29094V3.58594H201.457L156.217 121.951L108.247 3.58594H75.6822V7.29094C85.8222 8.46093 92.0622 15.4809 92.0622 32.6409V122.146C92.0622 137.746 88.1622 143.206 75.6822 144.181V147.886H115.462V144.181C102.982 143.011 98.8872 137.551 98.8872 122.146V29.7159L145.492 149.641V149.836H152.317L201.457 21.3309V126.046Z" fill="black"/>
<path d="M91.2519 1.74773L68.5078 3.35938L132.628 152.264L155.372 150.652L91.2519 1.74773Z" fill="#F0EDEE"/>
<path d="M133.783 0.659839L107.523 3.61719L111.117 10.566L137.377 7.6086L133.783 0.659839Z" fill="#F0EDEE"/>
<path d="M227.587 16.916H223.999V17.78H227.587L232.591 20.66V19.712L228.883 17.612C228.583 17.456 228.583 17.456 228.367 17.348C228.559 17.264 228.703 17.192 228.883 17.096L232.591 14.972V14L227.587 16.916ZM228.295 32.9881C230.911 32.9881 232.747 31.3081 232.747 28.8961C232.747 26.4961 230.899 24.8041 228.295 24.8041C225.691 24.8041 223.855 26.4841 223.855 28.8961C223.855 31.2961 225.691 32.9881 228.295 32.9881ZM228.295 32.1001C226.159 32.1001 224.683 30.7921 224.683 28.8961C224.683 27.0001 226.147 25.7041 228.295 25.7041C230.443 25.7041 231.907 27.0001 231.907 28.8961C231.907 30.7921 230.443 32.1001 228.295 32.1001ZM226.987 38.5748C225.031 38.5748 223.855 39.7748 223.855 41.7668C223.855 43.7228 225.043 44.9228 226.987 44.9228H232.591V44.0588H227.023C225.535 44.0588 224.695 43.2308 224.695 41.7668C224.695 40.2668 225.511 39.4388 227.023 39.4388H232.591V38.5748H226.987ZM223.999 51.8991H227.563V54.4071L223.999 56.1591V57.1191L227.707 55.2831C228.007 56.3871 228.871 57.0351 230.107 57.0351C231.631 57.0351 232.591 55.9791 232.591 54.2391V51.0351H223.999V51.8991ZM231.811 51.8991V54.2391C231.811 55.4151 231.199 56.1471 230.083 56.1471C228.991 56.1471 228.343 55.4511 228.343 54.2631V51.8991H231.811ZM223.999 71.051H228.211C229.519 71.051 230.467 71.027 230.791 70.979L223.999 73.775V74.603L230.827 77.399C230.239 77.351 229.579 77.327 228.079 77.327H223.999V78.179H232.591V77.315L225.019 74.183L232.591 71.051V70.199H223.999V71.051ZM228.295 92.0014C230.911 92.0014 232.747 90.3214 232.747 87.9094C232.747 85.5094 230.899 83.8174 228.295 83.8174C225.691 83.8174 223.855 85.4974 223.855 87.9094C223.855 90.3094 225.691 92.0014 228.295 92.0014ZM228.295 91.1134C226.159 91.1134 224.683 89.8054 224.683 87.9094C224.683 86.0134 226.147 84.7174 228.295 84.7174C230.443 84.7174 231.907 86.0134 231.907 87.9094C231.907 89.8054 230.443 91.1134 228.295 91.1134ZM223.999 97.6481V100.972C223.999 102.604 224.875 103.636 226.255 103.636C227.311 103.636 228.007 103.132 228.331 102.136C228.679 103.024 229.363 103.468 230.371 103.468C231.751 103.468 232.591 102.448 232.591 100.792V97.6481H223.999ZM231.823 100.78C231.823 101.932 231.259 102.58 230.299 102.58C229.279 102.58 228.679 101.968 228.679 100.888V98.5121H231.823V100.78ZM227.923 100.972C227.923 102.088 227.335 102.76 226.363 102.76C225.367 102.76 224.779 102.1 224.779 100.972V98.5121H227.923V100.972ZM232.591 110.139V109.275H223.999V110.139H232.591ZM232.591 117.172V116.308H223.999V121.12H224.791V117.172H232.591ZM223.999 126.728L226.279 127.568V131.528L223.999 132.368V133.268L232.591 130.076V129.008L223.999 125.852V126.728ZM231.379 129.428C231.499 129.476 231.655 129.524 231.727 129.536C231.643 129.548 231.499 129.608 231.379 129.644L227.035 131.252V127.832L231.379 129.428Z" fill="black"/>
</svg>
